<svg xmlns="http://www.w3.org/2000/svg" viewBox="0 0 232 64"><defs/><path fill="#fff" d="M1.38 28.42a4.72 4.72 0 000 6.67l10.57 10.56 7.11-7.11 5.56 5.56-7.12 7.11 10.57 10.57a4.72 4.72 0 006.67 0L45.3 51.2 11.95 17.86 1.38 28.42z"/><path fill="#81C4ED" d="M17.5 12.3l33.36 33.35L61.43 35.1a4.72 4.72 0 000-6.67L34.72 1.73a4.72 4.72 0 00-6.66 0L17.5 12.29z"/><path fill="#fff" d="M90.61 33.56H80.4v-8.3h10.8V22.4H77V48.7h14.78v-2.85H80.4v-9.47h10.22v-2.81zm4.04-8.27v4.52h-2.93v2.62h2.93v10.3c0 2.22.35 3.9 1.32 4.9.82.94 2.1 1.45 3.7 1.45a8.4 8.4 0 003.05-.47l-.16-2.57c-.43.11-1.09.23-1.99.23-1.9 0-2.57-1.32-2.57-3.66V32.43h4.91V29.8H98V24.4l-3.36.9zm17.8 4.1c-5.23 0-9.36 3.7-9.36 10.02 0 5.97 3.94 9.7 9.04 9.7 4.57 0 9.4-3.03 9.4-10.01 0-5.78-3.66-9.71-9.08-9.71zm-.08 2.57c4.05 0 5.65 4.05 5.65 7.25 0 4.25-2.45 7.33-5.73 7.33-3.35 0-5.73-3.12-5.73-7.25 0-3.59 1.75-7.33 5.8-7.33zm11.4 16.73h3.44V37.34c0-.58.07-1.17.23-1.6a4.88 4.88 0 014.6-3.5c3.24 0 4.37 2.53 4.37 5.57v10.88h3.43V37.42c0-6.48-4.06-8.04-6.67-8.04a6.94 6.94 0 00-6.24 3.55h-.08l-.2-3.12h-3.03c.11 1.56.15 3.16.15 5.11V48.7zm19.68-.08c1.71.2 3.74.31 6.16.31 5.1 0 9.16-1.32 11.62-3.78 2.46-2.42 3.78-5.93 3.78-10.22 0-4.25-1.36-7.29-3.7-9.44-2.3-2.14-5.77-3.27-10.65-3.27-2.69 0-5.15.23-7.21.54v25.86zm3.39-23.36c.9-.2 2.22-.35 3.98-.35 7.17 0 10.68 3.94 10.64 10.14 0 7.1-3.94 11.15-11.19 11.15-1.33 0-2.57-.04-3.43-.2V25.26zm23.8 23.44V29.81h-3.43V48.7h3.44zm-1.71-26.32a2.1 2.1 0 00-2.15 2.14c0 1.17.86 2.1 2.07 2.1 1.37 0 2.22-.93 2.19-2.1 0-1.2-.82-2.15-2.11-2.15zm18.58 7.44l-.16 2.85h-.07c-.82-1.56-2.62-3.27-5.9-3.27-4.32 0-8.5 3.62-8.5 10.02 0 5.22 3.36 9.2 8.04 9.2 2.92 0 4.95-1.4 6-3.16h.08v2.1c0 4.77-2.57 6.6-6.08 6.6-2.34 0-4.29-.7-5.54-1.48l-.86 2.61c1.52 1.02 4.02 1.56 6.28 1.56 2.38 0 5.03-.54 6.87-2.26 1.83-1.64 2.69-4.3 2.69-8.62V35c0-2.3.08-3.82.15-5.19h-3zm-.55 10.85c0 .58-.07 1.24-.27 1.83a5.02 5.02 0 01-4.76 3.5c-3.7 0-5.57-3.07-5.57-6.78 0-4.37 2.34-7.13 5.61-7.13a4.94 4.94 0 015 5.18v3.4zm10.2 8.03V29.81h-3.43V48.7h3.43zm-1.72-26.32a2.1 2.1 0 00-2.14 2.14c0 1.17.86 2.1 2.07 2.1 1.36 0 2.22-.93 2.18-2.1 0-1.2-.82-2.15-2.1-2.15zm6.1 2.92v4.52h-2.92v2.62h2.93v10.3c0 2.22.35 3.9 1.32 4.9.82.94 2.1 1.45 3.7 1.45a8.4 8.4 0 003.05-.47l-.16-2.57c-.43.11-1.09.23-1.99.23-1.9 0-2.57-1.32-2.57-3.66V32.43h4.91V29.8h-4.91V24.4l-3.35.9zm23.62 23.4a26.58 26.58 0 01-.31-4.52V37.1c0-3.79-1.4-7.73-7.18-7.73-2.38 0-4.64.67-6.2 1.68l.78 2.26a9.4 9.4 0 014.91-1.4c3.86 0 4.3 2.8 4.3 4.37v.39c-7.3-.04-11.36 2.45-11.36 7.02 0 2.73 1.95 5.42 5.78 5.42 2.69 0 4.71-1.33 5.77-2.8h.11l.28 2.37h3.12zm-3.63-6.36c0 .35-.08.74-.2 1.1a4.7 4.7 0 01-4.56 3.15c-1.75 0-3.23-1.05-3.23-3.27 0-3.67 4.25-4.33 8-4.25v3.27zm6.76 6.36h3.44V21h-3.44v27.69z"/></svg>